<svg width="180" height="180" viewBox="0 0 180 180" fill="none" xmlns="http://www.w3.org/2000/svg">
<path opacity="0.4" d="M58.5752 15.5H121.425C134.975 15.5 145.73 19.5372 153.087 26.9033C160.444 34.2693 164.462 45.0232 164.425 58.5732V121.425C164.425 134.975 160.388 145.73 153.021 153.097C145.655 160.463 134.9 164.5 121.35 164.5H58.5752C45.0246 164.5 34.2696 160.462 26.9033 153.087C19.5372 145.711 15.5 134.938 15.5 121.35V58.5752C15.5 45.0246 19.5369 34.2697 26.9033 26.9033C34.0394 19.7672 44.3554 15.7556 57.3125 15.5117L58.5752 15.5Z" fill="#4E070C" stroke="#4E070C"/>
<path d="M118.254 65.0781C120.234 63.0985 123.517 63.0987 125.497 65.0781C127.477 67.0579 127.477 70.3416 125.497 72.3213L82.9727 114.847C82.0154 115.804 80.7165 116.35 79.3506 116.35C77.9849 116.35 76.6867 115.804 75.7295 114.847L54.5039 93.6211C52.5247 91.6414 52.5247 88.3586 54.5039 86.3789C56.4836 84.3992 59.7673 84.3992 61.7471 86.3789L79.3506 103.982L79.7041 103.629L118.254 65.0781Z" fill="#4E070C" stroke="#4E070C"/>
</svg>
