<svg width="180" height="180" viewBox="0 0 180 180" fill="none" xmlns="http://www.w3.org/2000/svg">
<path d="M131.25 103.625C134.049 103.625 136.375 105.951 136.375 108.75V126.125H153.75C156.549 126.125 158.875 128.451 158.875 131.25C158.875 134.049 156.549 136.375 153.75 136.375H136.375V153.75C136.375 156.549 134.049 158.875 131.25 158.875C128.451 158.875 126.125 156.549 126.125 153.75V136.375H108.75C105.951 136.375 103.625 134.049 103.625 131.25C103.625 128.451 105.951 126.125 108.75 126.125H126.125V108.75C126.125 105.951 128.451 103.625 131.25 103.625Z" fill="#4E070C" stroke="#4E070C"/>
<path opacity="0.4" d="M117.975 15.5H148.275C154.199 15.5 158.226 16.5659 160.777 18.833C163.314 21.0867 164.5 24.6267 164.5 29.8496V63.9004C164.5 69.1237 163.314 72.6631 160.778 74.9072C158.228 77.1645 154.201 78.212 148.278 78.1748H117.975C112.05 78.1748 108.023 77.1269 105.472 74.8691C102.937 72.6253 101.75 69.0866 101.75 63.8252V29.8496C101.75 24.6267 102.936 21.0867 105.473 18.833C108.024 16.5659 112.051 15.5 117.975 15.5Z" fill="#4E070C" stroke="#4E070C"/>
<path d="M78.75 63.9V29.85C78.75 19.275 73.95 15 62.025 15H31.725C19.8 15 15 19.275 15 29.85V63.825C15 74.475 19.8 78.675 31.725 78.675H62.025C73.95 78.75 78.75 74.475 78.75 63.9Z" fill="#4E070C"/>
<path opacity="0.4" d="M78.75 148.275V117.975C78.75 106.05 73.95 101.25 62.025 101.25H31.725C19.8 101.25 15 106.05 15 117.975V148.275C15 160.2 19.8 165 31.725 165H62.025C73.95 165 78.75 160.2 78.75 148.275Z" fill="#4E070C"/>
</svg>
