<svg width="180" height="180" viewBox="0 0 180 180" fill="none" xmlns="http://www.w3.org/2000/svg">
<path opacity="0.4" d="M66.502 84.1689C71.7424 91.5522 80.4031 96.125 90 96.125C99.5249 96.1249 108.044 91.7642 113.348 84.4541C119.22 91.6853 128.083 96.1249 137.324 96.125C146.077 96.125 154.086 92.7539 159.774 86.7217V130.351C159.774 150.774 143.198 167.351 122.774 167.351H57.2246C36.8009 167.351 20.2248 150.774 20.2246 130.351V87.1836C25.9613 92.8836 33.8238 96.125 42.2998 96.125C51.685 96.1249 60.692 91.5447 66.502 84.1689Z" fill="#4E070C" stroke="#4E070C"/>
<path d="M111.974 9.875L117.775 66.7061V68.0996C117.7 71.8582 116.888 75.5426 115.563 78.707C111.144 88.7905 101.354 95.125 90 95.125C78.7928 95.125 68.7782 88.6378 64.5098 78.6289L64.5088 78.627C62.6694 74.3593 61.931 69.645 62.373 64.625L67.8779 9.875H111.974Z" fill="#4E070C" stroke="#4E070C"/>
<path opacity="0.6" d="M167.699 62.025L165.524 41.25C162.374 18.6 152.099 9.375 130.124 9.375H101.324L106.874 65.625C106.949 66.375 107.024 67.2 107.024 68.625C107.474 72.525 108.674 76.125 110.474 79.35C115.874 89.25 126.374 95.625 137.324 95.625C147.299 95.625 156.299 91.2 161.924 83.4C166.424 77.4 168.449 69.825 167.699 62.025Z" fill="#4E070C"/>
<path opacity="0.6" d="M49.4243 9.375C27.3743 9.375 17.1743 18.6 13.9493 41.475L11.9243 62.1C11.1743 70.125 13.3493 77.925 18.0743 84C23.7743 91.425 32.5493 95.625 42.2993 95.625C53.2493 95.625 63.7493 89.25 69.0743 79.5C71.0243 76.125 72.2993 72.225 72.6743 68.175L78.5243 9.45H49.4243V9.375Z" fill="#4E070C"/>
<path d="M85.1254 124.95C75.6004 125.925 68.4004 134.025 68.4004 143.625V167.85H111.525V146.25C111.6 130.575 102.375 123.15 85.1254 124.95Z" fill="#4E070C"/>
</svg>
