<svg width="180" height="180" viewBox="0 0 180 180" fill="none" xmlns="http://www.w3.org/2000/svg">
<path d="M112.5 111.125H157.5C160.299 111.125 162.625 113.451 162.625 116.25C162.625 119.049 160.299 121.375 157.5 121.375H112.5C109.701 121.375 107.375 119.049 107.375 116.25C107.375 113.451 109.701 111.125 112.5 111.125Z" fill="#4E070C" stroke="#4E070C"/>
<path d="M112.5 141.125H157.5C160.299 141.125 162.625 143.451 162.625 146.25C162.625 149.049 160.299 151.375 157.5 151.375H112.5C109.701 151.375 107.375 149.049 107.375 146.25C107.375 143.451 109.701 141.125 112.5 141.125Z" fill="#4E070C" stroke="#4E070C"/>
<path opacity="0.4" d="M165 63.9V29.85C165 19.275 160.2 15 148.275 15H117.975C106.05 15 101.25 19.275 101.25 29.85V63.825C101.25 74.475 106.05 78.675 117.975 78.675H148.275C160.2 78.75 165 74.475 165 63.9Z" fill="#4E070C"/>
<path d="M78.75 63.9V29.85C78.75 19.275 73.95 15 62.025 15H31.725C19.8 15 15 19.275 15 29.85V63.825C15 74.475 19.8 78.675 31.725 78.675H62.025C73.95 78.75 78.75 74.475 78.75 63.9Z" fill="#4E070C"/>
<path opacity="0.4" d="M78.75 148.275V117.975C78.75 106.05 73.95 101.25 62.025 101.25H31.725C19.8 101.25 15 106.05 15 117.975V148.275C15 160.2 19.8 165 31.725 165H62.025C73.95 165 78.75 160.2 78.75 148.275Z" fill="#4E070C"/>
</svg>
