<svg width="180" height="180" viewBox="0 0 180 180" fill="none" xmlns="http://www.w3.org/2000/svg">
<path d="M105.019 30.9688C108.49 30.9688 112.125 33.6317 114.978 39.2979V39.2988L125.553 60.4482C126.311 62.0022 127.686 63.4839 129.266 64.6494C130.749 65.7437 132.451 66.5876 134.062 66.9502L134.384 67.0166L134.394 67.0186L153.519 70.168C159.545 71.1662 163.088 73.8162 164.149 77.1309C165.211 80.4465 163.871 84.6843 159.545 89.0479L144.621 103.972C143.309 105.284 142.299 107.204 141.72 109.231C141.14 111.259 140.977 113.448 141.413 115.313L145.688 133.763C147.365 140.993 146.203 145.772 143.33 147.871C140.457 149.97 135.555 149.622 129.182 145.82H129.181L111.256 135.17C109.546 134.137 107.295 133.638 105.075 133.638C102.855 133.638 100.604 134.137 98.8945 135.17L80.9707 145.819C74.5969 149.584 69.6933 149.934 66.8193 147.843C63.9471 145.753 62.7846 140.994 64.4619 133.763L68.7373 115.312L68.7363 115.312C69.1728 113.482 69.0091 111.313 68.4307 109.288C67.8515 107.261 66.8426 105.325 65.5342 103.977L65.5283 103.972L50.6035 89.0469C46.278 84.7214 44.9394 80.5018 46.001 77.1865C47.0629 73.8704 50.6082 71.2032 56.6348 70.168L56.6338 70.167L75.7559 67.0186C77.4684 66.7397 79.3038 65.8526 80.8857 64.6758C82.4663 63.5 83.8403 62.0004 84.5977 60.4482L95.1729 39.2988L95.1738 39.2949C97.951 33.6295 101.55 30.9689 105.019 30.9688Z" fill="#4E070C" stroke="#4E070C"/>
<path opacity="0.4" d="M60 43.125H15C11.925 43.125 9.375 40.575 9.375 37.5C9.375 34.425 11.925 31.875 15 31.875H60C63.075 31.875 65.625 34.425 65.625 37.5C65.625 40.575 63.075 43.125 60 43.125Z" fill="#4E070C"/>
<path opacity="0.4" d="M37.5 148.125H15C11.925 148.125 9.375 145.575 9.375 142.5C9.375 139.425 11.925 136.875 15 136.875H37.5C40.575 136.875 43.125 139.425 43.125 142.5C43.125 145.575 40.575 148.125 37.5 148.125Z" fill="#4E070C"/>
<path opacity="0.4" d="M22.5 95.625H15C11.925 95.625 9.375 93.075 9.375 90C9.375 86.925 11.925 84.375 15 84.375H22.5C25.575 84.375 28.125 86.925 28.125 90C28.125 93.075 25.575 95.625 22.5 95.625Z" fill="#4E070C"/>
</svg>
